{
    "asset" : {
        "generator" : "Khronos glTF Blender I/O v1.3.48",
        "version" : "2.0"
    },
    "scene" : 0,
    "scenes" : [
        {
            "name" : "Scene",
            "nodes" : [
                0
            ]
        }
    ],
    "nodes" : [
        {
            "mesh" : 0,
            "name" : "HumHigh",
            "rotation" : [
                -0.13703545928001404,
                0.008566641248762608,
                -0.028860582038760185,
                0.9901086688041687
            ],
            "translation" : [
                0.2773807644844055,
                7.6179399490356445,
                -0.03653889149427414
            ]
        }
    ],
    "materials" : [
        {
            "doubleSided" : true,
            "emissiveFactor" : [
                0,
                0,
                0
            ],
            "name" : "HumHigh.001",
            "pbrMetallicRoughness" : {
                "baseColorTexture" : {
                    "index" : 0,
                    "texCoord" : 0
                },
                "metallicFactor" : 0,
                "roughnessFactor" : 1
            }
        }
    ],
    "meshes" : [
        {
            "name" : "HumHigh",
            "primitives" : [
                {
                    "attributes" : {
                        "POSITION" : 0,
                        "NORMAL" : 1,
                        "TEXCOORD_0" : 2
                    },
                    "indices" : 3,
                    "material" : 0
                }
            ]
        }
    ],
    "textures" : [
        {
            "source" : 0
        }
    ],
    "images" : [
        {
            "bufferView" : 4,
            "mimeType" : "image/jpeg",
            "name" : "HumHigh"
        }
    ],
    "accessors" : [
        {
            "bufferView" : 0,
            "componentType" : 5126,
            "count" : 6733,
            "max" : [
                4.457172870635986,
                5.559309959411621,
                4.5703277587890625
            ],
            "min" : [
                -4.499505996704102,
                -7.008575916290283,
                -4.450900554656982
            ],
            "type" : "VEC3"
        },
        {
            "bufferView" : 1,
            "componentType" : 5126,
            "count" : 6733,
            "type" : "VEC3"
        },
        {
            "bufferView" : 2,
            "componentType" : 5126,
            "count" : 6733,
            "type" : "VEC2"
        },
        {
            "bufferView" : 3,
            "componentType" : 5123,
            "count" : 27252,
            "type" : "SCALAR"
        }
    ],
    "bufferViews" : [
        {
            "buffer" : 0,
            "byteLength" : 80796,
            "byteOffset" : 0
        },
        {
            "buffer" : 0,
            "byteLength" : 80796,
            "byteOffset" : 80796
        },
        {
            "buffer" : 0,
            "byteLength" : 53864,
            "byteOffset" : 161592
        },
        {
            "buffer" : 0,
            "byteLength" : 54504,
            "byteOffset" : 215456
        },
        {
            "buffer" : 0,
            "byteLength" : 159744,
            "byteOffset" : 269960
        }
    ],
    "buffers" : [
        {
            "byteLength" : 429704,
            "uri" : "data:application/octet-stream;base64,"
        }
    ]
}
