{
    "asset" : {
        "generator" : "Khronos glTF Blender I/O v1.3.48",
        "version" : "2.0"
    },
    "scene" : 0,
    "scenes" : [
        {
            "name" : "Scene",
            "nodes" : [
                0
            ]
        }
    ],
    "nodes" : [
        {
            "mesh" : 0,
            "name" : "HumHigh",
            "rotation" : [
                -0.13703545928001404,
                0.008566641248762608,
                -0.028860582038760185,
                0.9901086688041687
            ],
            "translation" : [
                0.2773807644844055,
                6.639920711517334,
                -0.03653889149427414
            ]
        }
    ],
    "materials" : [
        {
            "doubleSided" : true,
            "emissiveFactor" : [
                0,
                0,
                0
            ],
            "name" : "HumHigh.001",
            "pbrMetallicRoughness" : {
                "baseColorTexture" : {
                    "index" : 0,
                    "texCoord" : 0
                },
                "metallicFactor" : 0,
                "roughnessFactor" : 1
            }
        }
    ],
    "meshes" : [
        {
            "name" : "HumHigh",
            "primitives" : [
                {
                    "attributes" : {
                        "POSITION" : 0,
                        "NORMAL" : 1,
                        "TEXCOORD_0" : 2
                    },
                    "indices" : 3,
                    "material" : 0
                }
            ]
        }
    ],
    "textures" : [
        {
            "source" : 0
        }
    ],
    "images" : [
        {
            "bufferView" : 4,
            "mimeType" : "image/jpeg",
            "name" : "HumHigh"
        }
    ],
    "accessors" : [
        {
            "bufferView" : 0,
            "componentType" : 5126,
            "count" : 56089,
            "max" : [
                4.4570722579956055,
                5.5568437576293945,
                4.569209098815918
            ],
            "min" : [
                -4.502426624298096,
                -7.008531093597412,
                -4.453605651855469
            ],
            "type" : "VEC3"
        },
        {
            "bufferView" : 1,
            "componentType" : 5126,
            "count" : 56089,
            "type" : "VEC3"
        },
        {
            "bufferView" : 2,
            "componentType" : 5126,
            "count" : 56089,
            "type" : "VEC2"
        },
        {
            "bufferView" : 3,
            "componentType" : 5123,
            "count" : 272550,
            "type" : "SCALAR"
        }
    ],
    "bufferViews" : [
        {
            "buffer" : 0,
            "byteLength" : 673068,
            "byteOffset" : 0
        },
        {
            "buffer" : 0,
            "byteLength" : 673068,
            "byteOffset" : 673068
        },
        {
            "buffer" : 0,
            "byteLength" : 448712,
            "byteOffset" : 1346136
        },
        {
            "buffer" : 0,
            "byteLength" : 545100,
            "byteOffset" : 1794848
        },
        {
            "buffer" : 0,
            "byteLength" : 159744,
            "byteOffset" : 2339948
        }
    ],
    "buffers" : [
        {
            "byteLength" : 2499692,
            "uri" : "data:application/octet-stream;base64,"
        }
    ]
}
