{
    "asset" : {
        "generator" : "Khronos glTF Blender I/O v1.3.48",
        "version" : "2.0"
    },
    "scene" : 0,
    "scenes" : [
        {
            "name" : "Scene",
            "nodes" : [
                0
            ]
        }
    ],
    "nodes" : [
        {
            "mesh" : 0,
            "name" : "Ko'zaLow_Cylinder",
            "rotation" : [
                0.7071068286895752,
                0,
                0,
                0.7071067094802856
            ],
            "translation" : [
                -5.864279955858365e-05,
                1.7011786699295044,
                9.218232298735529e-05
            ]
        }
    ],
    "materials" : [
        {
            "doubleSided" : true,
            "emissiveFactor" : [
                0,
                0,
                0
            ],
            "name" : "M_0_0.001",
            "normalTexture" : {
                "index" : 0,
                "texCoord" : 0
            },
            "pbrMetallicRoughness" : {
                "baseColorTexture" : {
                    "index" : 1,
                    "texCoord" : 0
                },
                "metallicFactor" : 0,
                "metallicRoughnessTexture" : {
                    "index" : 2,
                    "texCoord" : 0
                }
            }
        }
    ],
    "meshes" : [
        {
            "name" : "Ko'zaLow_Cylinder",
            "primitives" : [
                {
                    "attributes" : {
                        "POSITION" : 0,
                        "NORMAL" : 1,
                        "TEXCOORD_0" : 2
                    },
                    "indices" : 3,
                    "material" : 0
                }
            ]
        }
    ],
    "textures" : [
        {
            "source" : 0
        },
        {
            "source" : 1
        },
        {
            "source" : 2
        }
    ],
    "images" : [
        {
            "bufferView" : 4,
            "mimeType" : "image/png",
            "name" : "normal"
        },
        {
            "bufferView" : 5,
            "mimeType" : "image/png",
            "name" : "basecolor"
        },
        {
            "bufferView" : 6,
            "mimeType" : "image/png",
            "name" : "raugnes"
        }
    ],
    "accessors" : [
        {
            "bufferView" : 0,
            "componentType" : 5126,
            "count" : 1676,
            "max" : [
                1.3137826919555664,
                1.3138030767440796,
                1.7130626440048218
            ],
            "min" : [
                -1.3136653900146484,
                -1.313986897468567,
                -1.984707236289978
            ],
            "type" : "VEC3"
        },
        {
            "bufferView" : 1,
            "componentType" : 5126,
            "count" : 1676,
            "type" : "VEC3"
        },
        {
            "bufferView" : 2,
            "componentType" : 5126,
            "count" : 1676,
            "type" : "VEC2"
        },
        {
            "bufferView" : 3,
            "componentType" : 5123,
            "count" : 9018,
            "type" : "SCALAR"
        }
    ],
    "bufferViews" : [
        {
            "buffer" : 0,
            "byteLength" : 20112,
            "byteOffset" : 0
        },
        {
            "buffer" : 0,
            "byteLength" : 20112,
            "byteOffset" : 20112
        },
        {
            "buffer" : 0,
            "byteLength" : 13408,
            "byteOffset" : 40224
        },
        {
            "buffer" : 0,
            "byteLength" : 18036,
            "byteOffset" : 53632
        },
        {
            "buffer" : 0,
            "byteLength" : 342474,
            "byteOffset" : 71668
        },
        {
            "buffer" : 0,
            "byteLength" : 574927,
            "byteOffset" : 414144
        },
        {
            "buffer" : 0,
            "byteLength" : 1071581,
            "byteOffset" : 989072
        }
    ],
    "buffers" : [
        {
            "byteLength" : 2060656,
            "uri" : "data:application/octet-stream;base64,"
        }
    ]
}
