{
    "asset" : {
        "generator" : "Khronos glTF Blender I/O v1.3.48",
        "version" : "2.0"
    },
    "scene" : 0,
    "scenes" : [
        {
            "name" : "Scene",
            "nodes" : [
                0
            ]
        }
    ],
    "nodes" : [
        {
            "mesh" : 0,
            "name" : "suvdon"
        }
    ],
    "materials" : [
        {
            "doubleSided" : true,
            "emissiveFactor" : [
                0,
                0,
                0
            ],
            "name" : "M_0_0.001",
            "normalTexture" : {
                "index" : 0,
                "texCoord" : 0
            },
            "pbrMetallicRoughness" : {
                "baseColorTexture" : {
                    "index" : 1,
                    "texCoord" : 0
                },
                "metallicFactor" : 0,
                "roughnessFactor" : 1
            }
        }
    ],
    "meshes" : [
        {
            "name" : "Suvdon",
            "primitives" : [
                {
                    "attributes" : {
                        "POSITION" : 0,
                        "NORMAL" : 1,
                        "TEXCOORD_0" : 2
                    },
                    "indices" : 3,
                    "material" : 0
                }
            ]
        }
    ],
    "textures" : [
        {
            "source" : 0
        },
        {
            "source" : 1
        }
    ],
    "images" : [
        {
            "bufferView" : 4,
            "mimeType" : "image/jpeg",
            "name" : "Suvdon-Low_M_0_0_Height"
        },
        {
            "bufferView" : 5,
            "mimeType" : "image/jpeg",
            "name" : "Suvdon-Low_M_0_0_Diffuse"
        }
    ],
    "accessors" : [
        {
            "bufferView" : 0,
            "componentType" : 5126,
            "count" : 5790,
            "max" : [
                0.275448739528656,
                0.8922309279441833,
                0.2757689654827118
            ],
            "min" : [
                -0.2971499264240265,
                0.006512580439448357,
                -0.29800736904144287
            ],
            "type" : "VEC3"
        },
        {
            "bufferView" : 1,
            "componentType" : 5126,
            "count" : 5790,
            "type" : "VEC3"
        },
        {
            "bufferView" : 2,
            "componentType" : 5126,
            "count" : 5790,
            "type" : "VEC2"
        },
        {
            "bufferView" : 3,
            "componentType" : 5123,
            "count" : 28896,
            "type" : "SCALAR"
        }
    ],
    "bufferViews" : [
        {
            "buffer" : 0,
            "byteLength" : 69480,
            "byteOffset" : 0
        },
        {
            "buffer" : 0,
            "byteLength" : 69480,
            "byteOffset" : 69480
        },
        {
            "buffer" : 0,
            "byteLength" : 46320,
            "byteOffset" : 138960
        },
        {
            "buffer" : 0,
            "byteLength" : 57792,
            "byteOffset" : 185280
        },
        {
            "buffer" : 0,
            "byteLength" : 48067,
            "byteOffset" : 243072
        },
        {
            "buffer" : 0,
            "byteLength" : 208665,
            "byteOffset" : 291140
        }
    ],
    "buffers" : [
        {
            "byteLength" : 499808,
            "uri" : "data:application/octet-stream;base64,"
        }
    ]
}
