{
    "asset" : {
        "generator" : "Khronos glTF Blender I/O v1.3.48",
        "version" : "2.0"
    },
    "scene" : 0,
    "scenes" : [
        {
            "name" : "Scene",
            "nodes" : [
                0
            ]
        }
    ],
    "nodes" : [
        {
            "mesh" : 0,
            "name" : "suvdonMetal",
            "rotation" : [
                0.7071068286895752,
                0,
                0,
                0.7071067094802856
            ]
        }
    ],
    "materials" : [
        {
            "doubleSided" : true,
            "emissiveFactor" : [
                0,
                0,
                0
            ],
            "name" : "Suvdon3",
            "pbrMetallicRoughness" : {
                "baseColorTexture" : {
                    "index" : 0,
                    "texCoord" : 0
                },
                "metallicFactor" : 1,
                "roughnessFactor" : 0.4000000059604645
            }
        }
    ],
    "meshes" : [
        {
            "name" : "suvdonMetal",
            "primitives" : [
                {
                    "attributes" : {
                        "POSITION" : 0,
                        "NORMAL" : 1,
                        "TEXCOORD_0" : 2
                    },
                    "indices" : 3,
                    "material" : 0
                }
            ]
        }
    ],
    "textures" : [
        {
            "source" : 0
        }
    ],
    "images" : [
        {
            "bufferView" : 4,
            "mimeType" : "image/jpeg",
            "name" : "Suvdon3Bl_Suvdon3_Diffuse_compressed"
        }
    ],
    "accessors" : [
        {
            "bufferView" : 0,
            "componentType" : 5126,
            "count" : 14254,
            "max" : [
                3.8802731037139893,
                4.611033916473389,
                0.20987699925899506
            ],
            "min" : [
                -3.6455740928649902,
                -6.849629878997803,
                -18.459636688232422
            ],
            "type" : "VEC3"
        },
        {
            "bufferView" : 1,
            "componentType" : 5126,
            "count" : 14254,
            "type" : "VEC3"
        },
        {
            "bufferView" : 2,
            "componentType" : 5126,
            "count" : 14254,
            "type" : "VEC2"
        },
        {
            "bufferView" : 3,
            "componentType" : 5123,
            "count" : 62421,
            "type" : "SCALAR"
        }
    ],
    "bufferViews" : [
        {
            "buffer" : 0,
            "byteLength" : 171048,
            "byteOffset" : 0
        },
        {
            "buffer" : 0,
            "byteLength" : 171048,
            "byteOffset" : 171048
        },
        {
            "buffer" : 0,
            "byteLength" : 114032,
            "byteOffset" : 342096
        },
        {
            "buffer" : 0,
            "byteLength" : 124842,
            "byteOffset" : 456128
        },
        {
            "buffer" : 0,
            "byteLength" : 122446,
            "byteOffset" : 580972
        }
    ],
    "buffers" : [
        {
            "byteLength" : 703420,
            "uri" : "data:application/octet-stream;base64,"
        }
    ]
}
