{
    "asset" : {
        "generator" : "Khronos glTF Blender I/O v1.3.48",
        "version" : "2.0"
    },
    "scene" : 0,
    "scenes" : [
        {
            "name" : "Scene",
            "nodes" : [
                0,
                1,
                2
            ]
        }
    ],
    "nodes" : [
        {
            "name" : "Light",
            "rotation" : [
                0.16907575726509094,
                0.7558803558349609,
                -0.27217137813568115,
                0.570947527885437
            ],
            "translation" : [
                4.076245307922363,
                5.903861999511719,
                -1.0054539442062378
            ]
        },
        {
            "name" : "Camera",
            "rotation" : [
                0.483536034822464,
                0.33687159419059753,
                -0.20870360732078552,
                0.7804827094078064
            ],
            "translation" : [
                7.358891487121582,
                4.958309173583984,
                6.925790786743164
            ]
        },
        {
            "mesh" : 0,
            "name" : "Suvdon2Final",
            "rotation" : [
                0.7071068286895752,
                0,
                0,
                0.7071067094802856
            ]
        }
    ],
    "materials" : [
        {
            "doubleSided" : true,
            "emissiveFactor" : [
                0,
                0,
                0
            ],
            "name" : "Default_OBJ.002",
            "normalTexture" : {
                "index" : 0,
                "texCoord" : 0
            },
            "pbrMetallicRoughness" : {
                "baseColorTexture" : {
                    "index" : 1,
                    "texCoord" : 0
                },
                "metallicFactor" : 1,
                "metallicRoughnessTexture" : {
                    "index" : 2,
                    "texCoord" : 0
                }
            }
        }
    ],
    "meshes" : [
        {
            "name" : "Suvdon2Final",
            "primitives" : [
                {
                    "attributes" : {
                        "POSITION" : 0,
                        "NORMAL" : 1,
                        "TEXCOORD_0" : 2
                    },
                    "indices" : 3,
                    "material" : 0
                }
            ]
        }
    ],
    "textures" : [
        {
            "source" : 0
        },
        {
            "source" : 1
        },
        {
            "source" : 2
        }
    ],
    "images" : [
        {
            "bufferView" : 4,
            "mimeType" : "image/jpeg",
            "name" : "SuvdonLowDone_Default_OBJ.002_Normal_compressed"
        },
        {
            "bufferView" : 5,
            "mimeType" : "image/jpeg",
            "name" : "SuvdonLowDone_Default_OBJ.002_BaseColor_compressed"
        },
        {
            "bufferView" : 6,
            "mimeType" : "image/png",
            "name" : "SuvdonLowDone_Default_OBJ.002_Roughness_compressed"
        }
    ],
    "accessors" : [
        {
            "bufferView" : 0,
            "componentType" : 5126,
            "count" : 5923,
            "max" : [
                2.9110798835754395,
                3.263791084289551,
                -0.12781600654125214
            ],
            "min" : [
                -2.6686999797821045,
                -6.110665798187256,
                -14.586657524108887
            ],
            "type" : "VEC3"
        },
        {
            "bufferView" : 1,
            "componentType" : 5126,
            "count" : 5923,
            "type" : "VEC3"
        },
        {
            "bufferView" : 2,
            "componentType" : 5126,
            "count" : 5923,
            "type" : "VEC2"
        },
        {
            "bufferView" : 3,
            "componentType" : 5123,
            "count" : 25899,
            "type" : "SCALAR"
        }
    ],
    "bufferViews" : [
        {
            "buffer" : 0,
            "byteLength" : 71076,
            "byteOffset" : 0
        },
        {
            "buffer" : 0,
            "byteLength" : 71076,
            "byteOffset" : 71076
        },
        {
            "buffer" : 0,
            "byteLength" : 47384,
            "byteOffset" : 142152
        },
        {
            "buffer" : 0,
            "byteLength" : 51798,
            "byteOffset" : 189536
        },
        {
            "buffer" : 0,
            "byteLength" : 435520,
            "byteOffset" : 241336
        },
        {
            "buffer" : 0,
            "byteLength" : 282910,
            "byteOffset" : 676856
        },
        {
            "buffer" : 0,
            "byteLength" : 59420,
            "byteOffset" : 959768
        }
    ],
    "buffers" : [
        {
            "byteLength" : 1019188,
            "uri" : "data:application/octet-stream;base64,"
        }
    ]
}
